<svg width="128" height="128" viewBox="0 0 128 128" fill="none" xmlns="http://www.w3.org/2000/svg">
<g clip-path="url(#clip0_28_1282)">
<circle cx="64" cy="64" r="64" fill="#CF5F4D"/>
<g clip-path="url(#clip1_28_1282)">
<path d="M48.2702 90.0229C47.8923 90.2589 47.4524 90.3767 47.0071 90.361C46.5617 90.3454 46.1312 90.1971 45.7707 89.9351C45.4102 89.6732 45.1362 89.3095 44.9838 88.8908C44.8314 88.472 44.8075 88.0173 44.9152 87.5849L49.2462 70.1654L35.5029 58.616C35.1615 58.3296 34.9135 57.9477 34.7906 57.5193C34.6677 57.0909 34.6756 56.6356 34.8132 56.2117C34.9509 55.7878 35.212 55.4148 35.5631 55.1403C35.9143 54.8659 36.3394 54.7026 36.7839 54.6714L54.6915 53.4087L61.4259 36.7699C61.5928 36.3565 61.8794 36.0025 62.249 35.7531C62.6185 35.5038 63.0541 35.3706 63.4999 35.3706C63.9457 35.3706 64.3813 35.5038 64.7509 35.7531C65.1204 36.0025 65.407 36.3565 65.5739 36.7699L72.3083 53.4087L90.2159 54.6734C90.6604 54.7046 91.0856 54.8679 91.4367 55.1423C91.7878 55.4168 92.049 55.7899 92.1866 56.2137C92.3243 56.6376 92.3321 57.0929 92.2092 57.5213C92.0864 57.9497 91.8383 58.3316 91.4969 58.6181L77.7536 70.1654L82.0846 87.5849C82.1923 88.0173 82.1685 88.472 82.016 88.8908C81.8636 89.3095 81.5896 89.6732 81.2291 89.9351C80.8686 90.1971 80.4381 90.3454 79.9928 90.361C79.5474 90.3767 79.1075 90.2589 78.7296 90.0229L63.4999 80.5191L48.2702 90.0209V90.0229ZM63.4999 75.7286L77.048 84.1791L73.1948 68.6851L85.4192 58.4107L69.4921 57.2862L63.4999 42.4836L57.5077 57.2862L41.5806 58.4107L53.805 68.6831L49.9518 84.1791L63.4999 75.7286Z" fill="#F2D4AC"/>
</g>
</g>
<defs>
<clipPath id="clip0_28_1282">
<rect width="128" height="128" fill="white"/>
</clipPath>
<clipPath id="clip1_28_1282">
<rect width="61" height="61" fill="white" transform="translate(33 33)"/>
</clipPath>
</defs>
</svg>
