<svg width="611" height="573" viewBox="0 0 611 573" fill="none" xmlns="http://www.w3.org/2000/svg">
<g clip-path="url(#clip0_2_1053)">
<circle cx="337" cy="285" r="194" fill="#1166B7"/>
<path d="M596.019 126.844C596.019 126.844 590.022 93.8272 553.043 90.8256C516.064 87.8241 489.079 113.837 442.106 88.8246C393.704 63.0516 349.359 28.9043 295.999 13.5765C235.224 -3.88235 161.785 -7.00393 102.909 19.1893C77.6433 30.425 55.8257 48.8143 37.1563 68.9646C35.1774 71.1056 16.9577 89.645 13 97.1288C30.4101 119.46 106.877 221.362 125.276 311.938C125.276 311.938 172.249 256.91 243.209 248.906C314.169 240.902 325.163 306.935 396.122 322.943C467.082 338.951 515.055 309.937 539.041 318.941C563.027 327.946 529.047 361.963 546.037 393.979C563.027 425.995 611 435 611 435L596.009 126.844H596.019Z" fill="#D05E4D"/>
<path d="M263.677 572.458C261.505 573.638 258.783 572.828 257.612 570.647L0.545207 93.5969C-0.635697 91.4262 0.164915 88.7153 2.33658 87.545C4.50824 86.3646 7.22032 87.1648 8.39121 89.3355L265.468 566.416C266.629 568.576 265.828 571.277 263.667 572.458H263.677Z" fill="#161517"/>
<mask id="mask0_2_1053" style="mask-type:alpha" maskUnits="userSpaceOnUse" x="141" y="177" width="389" height="389">
<circle cx="335.5" cy="371.5" r="194.5" fill="#1166B7"/>
</mask>
<g mask="url(#mask0_2_1053)">
<path d="M222.532 334.02C222.532 334.02 207.393 342.68 202.844 348.695C198.304 354.72 191.484 365.637 183.155 370.151C174.826 374.664 172.936 375.042 172.936 375.042L155.147 363.37C155.147 363.37 152.498 363.748 150.608 365.627C148.718 367.506 140.389 372.398 140.009 373.909C139.629 375.41 151.748 397.244 154.768 399.123C157.787 401.002 174.456 399.501 178.996 397.989C183.535 396.488 216.472 376.156 227.452 370.886C238.431 365.617 246 355.078 246 355.078L222.532 334V334.02Z" fill="#F3EED9"/>
<path d="M243.541 353.55L222.016 334C221.776 334.14 221.487 334.311 221.167 334.511L234.635 357.438C234.635 357.438 230.292 360.875 223.444 365.464C216.585 370.053 199.453 382.208 199.453 382.208L217.503 363.4C217.503 363.4 193.053 381.055 188.94 383.811C184.827 386.567 178.427 389.082 178.427 389.082L177.289 386.557L195.569 372.107C195.569 372.107 181.173 380.364 180.494 380.364C179.815 380.364 174.783 381.737 174.783 381.737C174.783 381.737 174.783 379.673 174.324 376.466C174.234 375.815 174.104 375.204 173.974 374.642C173.555 374.793 173.385 374.833 173.385 374.833L155.624 363.069C155.624 363.069 155.115 363.149 154.396 363.39L157.421 369.131L146 377.619L158.799 371.887L161.085 376.707L148.975 385.655L163.831 379.001L167.026 384.733L154.915 392.529L168.164 386.336C168.164 386.336 170.22 388.631 169.991 390.234C169.761 391.837 163.591 395.274 162.453 396.657C161.654 397.619 161.185 399.032 159.718 399.954C165.888 400.244 176.051 399.112 179.435 397.98C183.968 396.467 216.854 375.975 227.816 370.664C235.154 367.107 240.955 361.185 244 357.648L243.561 353.55H243.541Z" fill="#161517"/>
<path d="M407.436 338.46L440 322.169L393.656 248.224L338.635 245L304.049 256.655L262.058 271.484L225 321.628L245.825 351.286L280.091 323.2C280.091 323.2 283.594 348.112 282.883 353.759C282.173 359.406 282.173 363.291 283.594 364.353C285.005 365.414 291.71 370 291.71 370L378.174 358.706C378.174 358.706 383.818 345.989 383.468 343.526C383.248 341.974 383.618 319.525 383.928 302.934L407.446 338.47L407.436 338.46Z" fill="#161517"/>
<path d="M298.444 263.063L303.737 268.271C303.737 268.271 304.222 261.641 304.222 259.276C304.222 258.59 304.545 257.795 305 257L304.353 257.219L261.964 271.938L229 315.799L243.578 327L244.537 307.112L238.759 307.589L258.974 282.961L268.116 289.59L264.267 276.798L278.229 286.27L271.006 272.535L289.301 266.85L298.444 263.063Z" fill="#EDEDED"/>
<path d="M234 326L228.982 316L225 321.589L226.133 323.271L226.608 322.647L234 326Z" fill="#EDEDED"/>
<path d="M413.173 336.279L399.293 318.129L429 321.141L403.317 312.116L411.377 286.055L396.276 307.106L400.806 275.032L392.746 299.085L388.217 259L384 303.382L407.705 339L413.173 336.279Z" fill="#161517"/>
<path d="M301.01 263.448C301.01 263.448 302.108 280.109 305.403 286.779C308.697 293.45 310.345 299 310.345 299L320.788 284.004L332.159 294.015L337.82 279.554L362 283.439L349.361 261.218C349.361 261.218 324.082 234.557 301 263.438L301.01 263.448Z" fill="#161517"/>
<path d="M273.344 309.476L254.103 291.648L269.643 312.453H243L272.598 318.395L245.955 340.688C245.955 340.688 248.492 343.784 251.327 347L280 323.419L266.678 282L273.334 309.486L273.344 309.476Z" fill="#161517"/>
<path d="M310.398 249.749C310.398 249.749 302.647 252.946 301.239 256.505C299.83 260.065 305.114 291 305.114 291L328.007 276.067L359 277.841C359 277.841 348.083 247.975 346.675 244.768C345.266 241.562 338.924 240.503 331.533 241.209C324.131 241.925 310.398 249.739 310.398 249.739V249.749Z" fill="#161517"/>
<path d="M301.238 256.885C300.773 258.083 301.04 262.333 301.605 267.474L303.081 269C303.081 269 303.557 262.169 303.557 259.732C303.557 257.295 307.332 253.393 307.332 253.393L313 249H312.158C311.018 249.625 310.335 250.024 310.335 250.024C310.335 250.024 302.645 253.27 301.248 256.885H301.238Z" fill="#EDEDED"/>
<path d="M284.263 197.223L282.382 206.92L285.007 209.906L282 222.219L287.261 225.206L291.022 244.6L296.283 246.467L306.05 243.111L307.931 258.031L328.601 289L344 250.202L336.859 222.968L341.747 206.55L340.62 203.195L285.762 192L284.263 197.223Z" fill="#F3EED9"/>
<path d="M304 198.776L284 204L284.867 198L304 198.776Z" fill="#161517"/>
<path d="M325.373 221.072L336.339 224L336.16 223.326L341 206.782L339.885 203.4L309.05 197L309 197.382L309.747 203.773L316.071 205.282L314.587 215.426L320.165 216.181L322.396 204.527L330.951 205.654L330.582 218.435L325.373 221.072Z" fill="#161517"/>
<path d="M280.476 191C280.476 191 266.653 195.103 270.764 197.709C274.875 200.325 304.021 198.458 304.021 198.458L341.389 208.901C341.389 208.901 344 209.65 344 207.034V204.428L280.476 191Z" fill="#161517"/>
<path d="M279.986 190.717C279.986 190.717 275.518 183.706 279.986 180.753C284.454 177.8 300.482 173.376 313.148 173.01C325.815 172.645 337.364 182.234 343.698 186.293C350.031 190.352 348.914 202.894 343.329 204L279.986 190.717Z" fill="#161517"/>
<path d="M303 244.044L305.571 243.156L307.427 257.886L308.161 259L323 239.844V224L321.521 236.156L303 244.044Z" fill="#161517"/>
<path d="M290 228.753L296.6 228L301 231.381L297.337 234H291.463L290 228.753Z" fill="#161517"/>
<path d="M289 205.7L297.238 203L305 206.373L294.879 212L294.413 208.173L289 205.7Z" fill="#161517"/>
<path d="M329 208L324.23 208.253L324 215.747L327.18 216L326.27 213L326.5 210.253L329 208Z" fill="#161517"/>
<path d="M282 222.776L292 222L287.272 226L282 222.776Z" fill="#161517"/>
<path d="M291.602 370.274L236 560.542H280.568L342.511 439.067L399.231 565H436C436 565 412.233 413.951 377.871 359L291.592 370.274H291.602Z" fill="#161517"/>
<path d="M236 561H241.853L269.33 458.18L267.452 510.841L290.605 388.585L299.364 380.439L293.102 382.32V374.164L303 369L291.614 370.491L236 561Z" fill="#969697"/>
<path d="M289.214 262.01L284 263.875C290.738 279.351 307.895 323.039 308.499 368L314 367.268C313.208 321.915 296.21 278.147 289.214 262V262.01Z" fill="#161517"/>
<path d="M366.141 360L371.769 359.252C377.053 314.43 364.051 267.663 356.924 246.349L351 246C357.831 265.878 371.966 314.25 366.141 360Z" fill="#161517"/>
<path d="M216 331.039L242.958 360L257 348.863L228.915 311L216 331.039Z" fill="#161517"/>
<path d="M336 385.336L340.874 420.896L346.835 405.341L345.204 382L349 405.889L339.786 427L336 385.336Z" fill="#161517"/>
<path d="M308.014 367.623C308.014 367.623 307.658 374.481 310.586 374.979C313.504 375.477 314 367 314 367L308.023 367.623H308.014Z" fill="#161517"/>
<path d="M366.014 360.623C366.014 360.623 365.658 367.481 368.586 367.979C371.504 368.477 372 360 372 360L366.023 360.623H366.014Z" fill="#161517"/>
<path d="M311.224 378L307 398.639L312.071 383.152L319 405L311.224 378Z" fill="#161517"/>
<path d="M370.534 371L370 391.598L372.309 377.355L383 400L370.534 371Z" fill="#161517"/>
<path d="M155.06 364.072C155.06 364.072 159.294 377 163.293 377C167.291 377 168 374.923 168 371.464C168 368.005 164.238 359 162.121 359C160.003 359 154.361 362.005 155.06 364.072Z" fill="#EDEDED"/>
<path d="M437.372 326C437.372 326 449.596 338.562 452.329 345.662C455.062 352.763 458.646 365.254 465.444 371.922C472.232 378.59 473.953 379.475 473.953 379.475L494.286 372.968C494.286 372.968 496.739 374.054 498.051 376.408C499.362 378.761 506.05 385.791 506 387.36C505.95 388.929 488.32 406.882 484.886 407.888C481.452 408.893 465.814 402.889 461.85 400.184C457.885 397.478 431.696 368.704 422.555 360.588C413.415 352.461 409 340.141 409 340.141L437.372 326.02V326Z" fill="#F3EED9"/>
<path d="M412.548 339.883L438.562 327C438.752 327.199 438.982 327.438 439.241 327.717L420.071 346.021C420.071 346.021 423.318 350.485 428.682 356.732C434.047 362.98 447.263 379.251 447.263 379.251L434.966 356.364C434.966 356.364 453.737 379.878 456.954 383.625C460.17 387.371 465.655 391.516 465.655 391.516L467.433 389.414L453.737 370.642C453.737 370.642 465.365 382.439 466.024 382.628C466.684 382.818 471.149 385.488 471.149 385.488C471.149 385.488 471.709 383.515 473.017 380.566C473.287 379.968 473.567 379.42 473.856 378.912C474.216 379.171 474.366 379.251 474.366 379.251L494.655 372.804C494.655 372.804 495.125 373.023 495.754 373.442L491.289 378.115L500 389.324L489.231 380.377L485.724 384.372L494.965 396.209L482.458 385.827L477.822 390.45L487.383 401.191L476.294 391.676C476.294 391.676 473.697 393.31 473.477 394.914C473.267 396.508 478.272 401.47 479.001 403.104C479.511 404.24 479.581 405.725 480.739 407C474.716 405.615 465.235 401.779 462.278 399.776C458.322 397.096 432.189 368.589 423.068 360.548C416.964 355.158 412.978 347.914 411 343.709L412.528 339.903L412.548 339.883Z" fill="#161517"/>
<path d="M494.79 373.751C494.79 373.751 487.247 384.991 483.456 383.929C479.664 382.877 479.552 380.704 480.495 377.388C481.438 374.072 487.47 366.468 489.478 367.029C491.485 367.59 496.027 371.948 494.79 373.751Z" fill="#EDEDED"/>
<path d="M334 292C334 290.892 333.108 290 332 290C330.892 290 330 290.892 330 292C330 293.108 330.892 294 332 294C333.108 294 334 293.108 334 292Z" fill="#161517"/>
<path d="M335 316C336.105 316 337 315.105 337 314C337 312.895 336.105 312 335 312C333.895 312 333 312.895 333 314C333 315.105 333.895 316 335 316Z" fill="#161517"/>
<path d="M337 338C338.105 338 339 337.105 339 336C339 334.895 338.105 334 337 334C335.895 334 335 334.895 335 336C335 337.105 335.895 338 337 338Z" fill="#161517"/>
<path d="M342 360C343.105 360 344 359.105 344 358C344 356.895 343.105 356 342 356C340.895 356 340 356.895 340 358C340 359.105 340.895 360 342 360Z" fill="#D05E4D"/>
<path d="M242.558 329.197L251.02 346.746L230.749 324L245.573 351.201L223 337.254L225.915 341.538L242.98 360L257 348.803L242.558 329.197Z" fill="#161517"/>
<path d="M314.159 197.457C313.44 197.457 287.682 189.101 287.682 189.101L293.168 192.785L279 188C279.589 189.791 280.419 191.159 280.419 191.159L343.874 205C345.862 204.588 347.281 202.685 348 200.205C337.309 199.32 314.709 197.467 314.159 197.467V197.457Z" fill="#D05E4D"/>
<path d="M441.573 318L402 336.551L408.907 352L451 332.837L441.573 318Z" fill="#161517"/>
<path d="M446 327.532L443.279 323L442.326 323.662L422 334L446 327.532Z" fill="#D05E4D"/>
<path d="M405 344.994L408.07 352L450 332.527L447.18 328L412.46 345.877L415.95 340.366L405 344.994Z" fill="#D05E4D"/>
<path d="M446 327.532L443.279 323L442.326 323.662L422 334L446 327.532Z" fill="#161517"/>
<path d="M405 344.994L408.07 352L450 332.527L447.18 328L412.46 345.877L415.95 340.366L405 344.994Z" fill="#161517"/>
<path d="M279.972 180.919C277.448 182.636 277.795 185.687 278.566 188.01L287.165 189.091L316 193L286.77 181.929L305.63 179.525L294.785 178.081L312.873 173C300.306 173.374 284.414 177.909 279.972 180.919Z" fill="#EDEDED"/>
<path d="M278.946 191C275.514 192.104 267.515 195.003 270.758 197L286 191.979L278.946 191Z" fill="#EDEDED"/>
<path d="M228.891 311L216 330.797L223.707 339L220.532 329.624L226.269 322.585L233.935 325.868L228.188 315.062L237 321.815L228.891 311Z" fill="#EDEDED"/>
<path d="M298.752 367.554L304 360.501L293.424 367.445L282.467 354C281.756 359.564 281.756 363.391 283.178 364.436C284.59 365.482 291.301 370 291.301 370L302.718 368.53L298.752 367.554Z" fill="#EDEDED"/>
<path d="M437 564.99C437 564.99 436.639 562.72 435.956 558.66L394.579 510.41L405.272 535.47L343 439L400.031 565H437V564.99Z" fill="#969697"/>
</g>
</g>
<defs>
<clipPath id="clip0_2_1053">
<rect width="611" height="573" fill="white"/>
</clipPath>
</defs>
</svg>
